# xmcd
#
# Track frame offsets: 
#        150
#        18035
#        36838
#        55807
#        71852
#        88451
#        106256
#        121913
#        139216
#        157101
#
# Disc length: 2273 seconds
#
# Revision: 0
# Processed by: cddbd v1.5.2PL0 Copyright (c) Steve Scherf et al.
# Submitted via: ExactAudioCopy v0.95a5
#
DISCID=8a08df0a
DTITLE=Westerly - Rodeo
DYEAR=2007
DGENRE=Alternative
TTITLE0=Rodeo
TTITLE1=Weightless
TTITLE2=Darkness
TTITLE3=Ella
TTITLE4=Glitter in the Basement
TTITLE5=New Frontier
TTITLE6=Standing Tall
TTITLE7=Where I Am
TTITLE8=Wild Wild Wind
TTITLE9=Westerlilly
EXTD=
EXTT0=
EXTT1=
EXTT2=
EXTT3=
EXTT4=
EXTT5=
EXTT6=
EXTT7=
EXTT8=
EXTT9=
PLAYORDER=
